STARTFONT 2.1
FONT tekfont1
COMMENT -misc-tektronix-bold-r-normal--22-220-75-75-m-130-iso8859-1
SIZE 12 75 75
FONTBOUNDINGBOX 13 20 0 -5
STARTPROPERTIES 9
FONT_ASCENT 15
FONT_DESCENT 5
DEFAULT_CHAR 32
CAP_HEIGHT 15
X_HEIGHT 10
PIXEL_SIZE 22
POINT_SIZE 220
FOUNDRY_NAME "misc"
FAMILY_NAME "tektronix"
ENDPROPERTIES
CHARS 96
STARTCHAR <unknown>
ENCODING 32
SWIDTH 42 0
DWIDTH 13 0
BBX 0 0 0 0
BITMAP
ENDCHAR
STARTCHAR <unknown>
ENCODING 33
SWIDTH 42 0
DWIDTH 13 0
BBX 2 15 4 0
BITMAP
C0
C0
C0
C0
C0
C0
C0
C0
C0
C0
C0
00
00
C0
C0
ENDCHAR
STARTCHAR <unknown>
ENCODING 34
SWIDTH 42 0
DWIDTH 13 0
BBX 5 6 2 9
BITMAP
D8
D8
D8
D8
D8
D8
ENDCHAR
STARTCHAR <unknown>
ENCODING 35
SWIDTH 42 0
DWIDTH 13 0
BBX 9 15 0 0
BITMAP
3600
3600
3600
FF80
FF80
3600
3600
3600
3600
3600
FF80
FF80
3600
3600
3600
ENDCHAR
STARTCHAR <unknown>
ENCODING 36
SWIDTH 42 0
DWIDTH 13 0
BBX 10 15 0 0
BITMAP
1E00
1E00
3F00
7F80
DFC0
DEC0
7E00
3F00
1F80
DEC0
FEC0
7F80
3F00
1E00
1E00
ENDCHAR
STARTCHAR <unknown>
ENCODING 37
SWIDTH 42 0
DWIDTH 13 0
BBX 10 15 0 0
BITMAP
2000
7000
D8C0
D9C0
DB80
7700
2E00
0C00
1D00
3B80
76C0
E6C0
C6C0
0380
0100
ENDCHAR
STARTCHAR <unknown>
ENCODING 38
SWIDTH 42 0
DWIDTH 13 0
BBX 10 15 0 0
BITMAP
7000
F800
D800
D800
F800
7000
7000
F800
DD80
CF80
C700
C300
E780
7FC0
3CC0
ENDCHAR
STARTCHAR <unknown>
ENCODING 39
SWIDTH 42 0
DWIDTH 13 0
BBX 5 7 2 8
BITMAP
18
18
18
38
70
E0
C0
ENDCHAR
STARTCHAR <unknown>
ENCODING 40
SWIDTH 42 0
DWIDTH 13 0
BBX 5 15 3 0
BITMAP
18
38
70
E0
C0
C0
C0
C0
C0
C0
C0
E0
70
38
18
ENDCHAR
STARTCHAR <unknown>
ENCODING 41
SWIDTH 42 0
DWIDTH 13 0
BBX 5 15 2 0
BITMAP
C0
E0
70
38
18
18
18
18
18
18
18
38
70
E0
C0
ENDCHAR
STARTCHAR <unknown>
ENCODING 42
SWIDTH 42 0
DWIDTH 13 0
BBX 10 15 0 0
BITMAP
0C00
0C00
CCC0
EDC0
7F80
3F00
1E00
0C00
1E00
3F00
7F80
EDC0
CCC0
0C00
0C00
ENDCHAR
STARTCHAR <unknown>
ENCODING 43
SWIDTH 42 0
DWIDTH 13 0
BBX 10 12 0 1
BITMAP
0C00
0C00
0C00
0C00
0C00
FFC0
FFC0
0C00
0C00
0C00
0C00
0C00
ENDCHAR
STARTCHAR <unknown>
ENCODING 44
SWIDTH 42 0
DWIDTH 13 0
BBX 5 7 2 -3
BITMAP
30
78
78
30
30
E0
C0
ENDCHAR
STARTCHAR <unknown>
ENCODING 45
SWIDTH 42 0
DWIDTH 13 0
BBX 10 2 0 6
BITMAP
FFC0
FFC0
ENDCHAR
STARTCHAR <unknown>
ENCODING 46
SWIDTH 42 0
DWIDTH 13 0
BBX 4 4 3 1
BITMAP
60
F0
F0
60
ENDCHAR
STARTCHAR <unknown>
ENCODING 47
SWIDTH 42 0
DWIDTH 13 0
BBX 10 11 0 2
BITMAP
00C0
01C0
0380
0700
0E00
0C00
1C00
3800
7000
E000
C000
ENDCHAR
STARTCHAR <unknown>
ENCODING 48
SWIDTH 42 0
DWIDTH 13 0
BBX 10 15 0 0
BITMAP
1E00
3F00
7380
E1C0
C3C0
C7C0
CEC0
DCC0
F8C0
F0C0
E0C0
E1C0
7380
3F00
1E00
ENDCHAR
STARTCHAR <unknown>
ENCODING 49
SWIDTH 42 0
DWIDTH 13 0
BBX 8 15 1 0
BITMAP
18
38
78
F8
D8
18
18
18
18
18
18
18
18
FF
FF
ENDCHAR
STARTCHAR <unknown>
ENCODING 50
SWIDTH 42 0
DWIDTH 13 0
BBX 10 15 0 0
BITMAP
3F00
7F80
E1C0
C0C0
00C0
01C0
3F80
7F00
E000
C000
C000
C000
C0C0
FFC0
FFC0
ENDCHAR
STARTCHAR <unknown>
ENCODING 51
SWIDTH 42 0
DWIDTH 13 0
BBX 10 15 0 0
BITMAP
3F00
7F80
E1C0
C0C0
00C0
01C0
0780
0780
01C0
00C0
00C0
C0C0
E1C0
7F80
3F00
ENDCHAR
STARTCHAR <unknown>
ENCODING 52
SWIDTH 42 0
DWIDTH 13 0
BBX 10 15 0 0
BITMAP
0300
0700
0700
0F00
1F00
1B00
3B00
7300
6300
FFC0
FFC0
0300
0300
0300
0300
ENDCHAR
STARTCHAR <unknown>
ENCODING 53
SWIDTH 42 0
DWIDTH 13 0
BBX 10 15 0 0
BITMAP
FFC0
FFC0
C000
C000
C000
C000
FF00
FF80
01C0
00C0
00C0
C1C0
E380
7F00
3E00
ENDCHAR
STARTCHAR <unknown>
ENCODING 54
SWIDTH 42 0
DWIDTH 13 0
BBX 10 15 0 0
BITMAP
1F00
3F80
71C0
E0C0
C000
C000
DF00
FF80
E1C0
C0C0
C0C0
C0C0
E1C0
7F80
3F00
ENDCHAR
STARTCHAR <unknown>
ENCODING 55
SWIDTH 42 0
DWIDTH 13 0
BBX 10 15 0 0
BITMAP
FFC0
FFC0
C0C0
00C0
01C0
0380
0700
0E00
0C00
0C00
0C00
0C00
0C00
0C00
0C00
ENDCHAR
STARTCHAR <unknown>
ENCODING 56
SWIDTH 42 0
DWIDTH 13 0
BBX 10 15 0 0
BITMAP
3F00
7F80
E1C0
C0C0
E1C0
7380
3F00
1E00
3F00
7380
E1C0
C0C0
E1C0
7F80
3F00
ENDCHAR
STARTCHAR <unknown>
ENCODING 57
SWIDTH 42 0
DWIDTH 13 0
BBX 10 15 0 0
BITMAP
3F00
7F80
E1C0
C0C0
C0C0
C0C0
E0C0
70C0
3FC0
1FC0
00C0
C1C0
E380
7F00
3E00
ENDCHAR
STARTCHAR <unknown>
ENCODING 58
SWIDTH 42 0
DWIDTH 13 0
BBX 4 10 3 2
BITMAP
60
F0
F0
60
00
00
60
F0
F0
60
ENDCHAR
STARTCHAR <unknown>
ENCODING 59
SWIDTH 42 0
DWIDTH 13 0
BBX 5 13 2 -4
BITMAP
30
78
78
30
00
00
30
78
78
30
30
E0
C0
ENDCHAR
STARTCHAR <unknown>
ENCODING 60
SWIDTH 42 0
DWIDTH 13 0
BBX 10 15 0 0
BITMAP
01C0
03C0
0700
0E00
1C00
3800
7000
E000
7000
3800
1C00
0E00
0700
03C0
01C0
ENDCHAR
STARTCHAR <unknown>
ENCODING 61
SWIDTH 42 0
DWIDTH 13 0
BBX 10 6 0 4
BITMAP
FFC0
FFC0
0000
0000
FFC0
FFC0
ENDCHAR
STARTCHAR <unknown>
ENCODING 62
SWIDTH 42 0
DWIDTH 13 0
BBX 10 15 0 0
BITMAP
E000
F000
3800
1C00
0E00
0700
0380
01C0
0380
0700
0E00
1C00
3800
F000
E000
ENDCHAR
STARTCHAR <unknown>
ENCODING 63
SWIDTH 42 0
DWIDTH 13 0
BBX 10 15 0 0
BITMAP
3F00
7F80
E1C0
C0C0
00C0
01C0
0F80
0F00
0C00
0C00
0C00
0000
0000
0C00
0C00
ENDCHAR
STARTCHAR <unknown>
ENCODING 64
SWIDTH 42 0
DWIDTH 13 0
BBX 10 15 0 0
BITMAP
1F00
3F80
71C0
E0C0
CEC0
DFC0
DBC0
DBC0
DBC0
DFC0
CF80
E000
71C0
3F80
1F00
ENDCHAR
STARTCHAR <unknown>
ENCODING 65
SWIDTH 42 0
DWIDTH 13 0
BBX 10 15 0 0
BITMAP
0C00
1E00
3F00
7380
E1C0
C0C0
C0C0
C0C0
FFC0
FFC0
C0C0
C0C0
C0C0
C0C0
C0C0
ENDCHAR
STARTCHAR <unknown>
ENCODING 66
SWIDTH 42 0
DWIDTH 13 0
BBX 10 15 0 0
BITMAP
FE00
FF00
6380
61C0
61C0
6380
7F00
7F00
6380
61C0
60C0
61C0
6380
FF00
FE00
ENDCHAR
STARTCHAR <unknown>
ENCODING 67
SWIDTH 42 0
DWIDTH 13 0
BBX 10 15 0 0
BITMAP
1E00
3F00
7380
E1C0
C0C0
C000
C000
C000
C000
C000
C0C0
E1C0
7380
3F00
1E00
ENDCHAR
STARTCHAR <unknown>
ENCODING 68
SWIDTH 42 0
DWIDTH 13 0
BBX 10 15 0 0
BITMAP
FE00
FF00
6380
61C0
60C0
60C0
60C0
60C0
60C0
60C0
60C0
61C0
6380
FF00
FE00
ENDCHAR
STARTCHAR <unknown>
ENCODING 69
SWIDTH 42 0
DWIDTH 13 0
BBX 10 15 0 0
BITMAP
FFC0
FFC0
C000
C000
C000
C000
FE00
FE00
C000
C000
C000
C000
C000
FFC0
FFC0
ENDCHAR
STARTCHAR <unknown>
ENCODING 70
SWIDTH 42 0
DWIDTH 13 0
BBX 10 15 0 0
BITMAP
FFC0
FFC0
C000
C000
C000
C000
FE00
FE00
C000
C000
C000
C000
C000
C000
C000
ENDCHAR
STARTCHAR <unknown>
ENCODING 71
SWIDTH 42 0
DWIDTH 13 0
BBX 10 15 0 0
BITMAP
1E00
3F00
7380
E1C0
C0C0
C000
C000
C000
C3C0
C3C0
C0C0
E1C0
73C0
3FC0
1EC0
ENDCHAR
STARTCHAR <unknown>
ENCODING 72
SWIDTH 42 0
DWIDTH 13 0
BBX 10 15 0 0
BITMAP
C0C0
C0C0
C0C0
C0C0
C0C0
C0C0
FFC0
FFC0
C0C0
C0C0
C0C0
C0C0
C0C0
C0C0
C0C0
ENDCHAR
STARTCHAR <unknown>
ENCODING 73
SWIDTH 42 0
DWIDTH 13 0
BBX 8 15 1 0
BITMAP
FF
FF
18
18
18
18
18
18
18
18
18
18
18
FF
FF
ENDCHAR
STARTCHAR <unknown>
ENCODING 74
SWIDTH 42 0
DWIDTH 13 0
BBX 10 15 0 0
BITMAP
07C0
07C0
0180
0180
0180
0180
0180
0180
0180
0180
0180
C180
E380
7F00
3E00
ENDCHAR
STARTCHAR <unknown>
ENCODING 75
SWIDTH 42 0
DWIDTH 13 0
BBX 10 15 0 0
BITMAP
C1C0
C3C0
C700
CE00
DC00
F800
F000
E000
F000
F800
DC00
CE00
C700
C3C0
C1C0
ENDCHAR
STARTCHAR <unknown>
ENCODING 76
SWIDTH 42 0
DWIDTH 13 0
BBX 10 15 0 0
BITMAP
E000
E000
6000
6000
6000
6000
6000
6000
6000
6000
6000
6000
60C0
7FC0
7FC0
ENDCHAR
STARTCHAR <unknown>
ENCODING 77
SWIDTH 42 0
DWIDTH 13 0
BBX 10 15 0 0
BITMAP
E1C0
F3C0
FFC0
DEC0
CCC0
CCC0
CCC0
CCC0
C0C0
C0C0
C0C0
C0C0
C0C0
C0C0
C0C0
ENDCHAR
STARTCHAR <unknown>
ENCODING 78
SWIDTH 42 0
DWIDTH 13 0
BBX 10 15 0 0
BITMAP
C0C0
E0C0
F0C0
F8C0
DCC0
CCC0
CEC0
C7C0
C3C0
C1C0
C0C0
C0C0
C0C0
C0C0
C0C0
ENDCHAR
STARTCHAR <unknown>
ENCODING 79
SWIDTH 42 0
DWIDTH 13 0
BBX 10 15 0 0
BITMAP
1E00
3F00
7380
E1C0
C0C0
C0C0
C0C0
C0C0
C0C0
C0C0
C0C0
E1C0
7380
3F00
1E00
ENDCHAR
STARTCHAR <unknown>
ENCODING 80
SWIDTH 42 0
DWIDTH 13 0
BBX 10 15 0 0
BITMAP
FF00
FF80
C1C0
C0C0
C0C0
C1C0
FF80
FF00
C000
C000
C000
C000
C000
C000
C000
ENDCHAR
STARTCHAR <unknown>
ENCODING 81
SWIDTH 42 0
DWIDTH 13 0
BBX 10 15 0 0
BITMAP
1E00
3F00
7380
E1C0
C0C0
C0C0
C0C0
C0C0
C6C0
C6C0
C7C0
E3C0
7380
3FC0
1EC0
ENDCHAR
STARTCHAR <unknown>
ENCODING 82
SWIDTH 42 0
DWIDTH 13 0
BBX 10 15 0 0
BITMAP
FF00
FF80
C1C0
C0C0
C0C0
C1C0
FF80
FF00
F800
DC00
CE00
C700
C380
C1C0
C0C0
ENDCHAR
STARTCHAR <unknown>
ENCODING 83
SWIDTH 42 0
DWIDTH 13 0
BBX 10 15 0 0
BITMAP
1F00
3F80
71C0
E0C0
C000
E000
7F00
3F80
01C0
00C0
00C0
C1C0
E380
7F00
3E00
ENDCHAR
STARTCHAR <unknown>
ENCODING 84
SWIDTH 42 0
DWIDTH 13 0
BBX 10 15 0 0
BITMAP
FFC0
FFC0
CCC0
0C00
0C00
0C00
0C00
0C00
0C00
0C00
0C00
0C00
0C00
0C00
0C00
ENDCHAR
STARTCHAR <unknown>
ENCODING 85
SWIDTH 42 0
DWIDTH 13 0
BBX 10 15 0 0
BITMAP
C0C0
C0C0
C0C0
C0C0
C0C0
C0C0
C0C0
C0C0
C0C0
C0C0
C0C0
C0C0
E1C0
7F80
3F00
ENDCHAR
STARTCHAR <unknown>
ENCODING 86
SWIDTH 42 0
DWIDTH 13 0
BBX 10 15 0 0
BITMAP
C0C0
C0C0
C0C0
C0C0
C0C0
C0C0
C0C0
C0C0
C0C0
C0C0
E1C0
7380
3F00
1E00
0C00
ENDCHAR
STARTCHAR <unknown>
ENCODING 87
SWIDTH 42 0
DWIDTH 13 0
BBX 10 15 0 0
BITMAP
C0C0
C0C0
C0C0
C0C0
C0C0
C0C0
C0C0
C0C0
CCC0
CCC0
CCC0
CCC0
FFC0
7F80
3300
ENDCHAR
STARTCHAR <unknown>
ENCODING 88
SWIDTH 42 0
DWIDTH 13 0
BBX 10 15 0 0
BITMAP
C0C0
C0C0
E1C0
6180
7380
3F00
1E00
0C00
1E00
3F00
7380
6180
E1C0
C0C0
C0C0
ENDCHAR
STARTCHAR <unknown>
ENCODING 89
SWIDTH 42 0
DWIDTH 13 0
BBX 10 15 0 0
BITMAP
C0C0
C0C0
C0C0
C0C0
C0C0
E1C0
7380
3F00
1E00
0C00
0C00
0C00
0C00
0C00
0C00
ENDCHAR
STARTCHAR <unknown>
ENCODING 90
SWIDTH 42 0
DWIDTH 13 0
BBX 10 15 0 0
BITMAP
FFC0
FFC0
C0C0
01C0
0380
0700
0E00
0C00
1C00
3800
7000
E000
E0C0
FFC0
FFC0
ENDCHAR
STARTCHAR <unknown>
ENCODING 91
SWIDTH 42 0
DWIDTH 13 0
BBX 10 15 0 0
BITMAP
FFC0
FFC0
E000
E000
E000
E000
E000
E000
E000
E000
E000
E000
E000
FFC0
FFC0
ENDCHAR
STARTCHAR <unknown>
ENCODING 92
SWIDTH 42 0
DWIDTH 13 0
BBX 10 11 0 2
BITMAP
C000
E000
7000
3800
1C00
0C00
0E00
0700
0380
01C0
00C0
ENDCHAR
STARTCHAR <unknown>
ENCODING 93
SWIDTH 42 0
DWIDTH 13 0
BBX 10 15 0 0
BITMAP
FFC0
FFC0
01C0
01C0
01C0
01C0
01C0
01C0
01C0
01C0
01C0
01C0
01C0
FFC0
FFC0
ENDCHAR
STARTCHAR <unknown>
ENCODING 94
SWIDTH 42 0
DWIDTH 13 0
BBX 10 6 0 9
BITMAP
0C00
1E00
3F00
7380
E1C0
C0C0
ENDCHAR
STARTCHAR <unknown>
ENCODING 95
SWIDTH 42 0
DWIDTH 13 0
BBX 13 2 0 -3
BITMAP
FFF8
FFF8
ENDCHAR
STARTCHAR <unknown>
ENCODING 96
SWIDTH 42 0
DWIDTH 13 0
BBX 5 7 3 8
BITMAP
C0
C0
C0
E0
70
38
18
ENDCHAR
STARTCHAR <unknown>
ENCODING 97
SWIDTH 42 0
DWIDTH 13 0
BBX 10 10 0 0
BITMAP
FE00
FF00
0380
3F80
7F80
E180
C180
E180
7FC0
3EC0
ENDCHAR
STARTCHAR <unknown>
ENCODING 98
SWIDTH 42 0
DWIDTH 13 0
BBX 10 15 0 0
BITMAP
E000
E000
6000
6000
6000
6F00
7F80
79C0
70C0
60C0
60C0
70C0
79C0
FF80
EF00
ENDCHAR
STARTCHAR <unknown>
ENCODING 99
SWIDTH 42 0
DWIDTH 13 0
BBX 10 10 0 0
BITMAP
3F80
7F80
E000
C000
C000
C000
C0C0
E1C0
7F80
3F00
ENDCHAR
STARTCHAR <unknown>
ENCODING 100
SWIDTH 42 0
DWIDTH 13 0
BBX 10 15 0 0
BITMAP
01C0
01C0
0180
0180
0180
3D80
7F80
E780
C380
C180
C180
C380
E780
7FC0
3DC0
ENDCHAR
STARTCHAR <unknown>
ENCODING 101
SWIDTH 42 0
DWIDTH 13 0
BBX 10 10 0 0
BITMAP
3F00
7F80
E1C0
FFC0
FFC0
C000
C0C0
E1C0
7F80
3F00
ENDCHAR
STARTCHAR <unknown>
ENCODING 102
SWIDTH 42 0
DWIDTH 13 0
BBX 8 15 1 0
BITMAP
1E
3F
33
30
30
30
FC
FC
30
30
30
30
30
FC
FC
ENDCHAR
STARTCHAR <unknown>
ENCODING 103
SWIDTH 42 0
DWIDTH 13 0
BBX 10 15 0 -5
BITMAP
3DC0
7FC0
E780
C380
C180
C180
C380
E780
7F80
3D80
0180
C180
E380
7F00
3E00
ENDCHAR
STARTCHAR <unknown>
ENCODING 104
SWIDTH 42 0
DWIDTH 13 0
BBX 10 15 0 0
BITMAP
E000
E000
6000
6000
6000
6E00
7F00
7380
6180
6180
6180
6180
6180
E1C0
E1C0
ENDCHAR
STARTCHAR <unknown>
ENCODING 105
SWIDTH 42 0
DWIDTH 13 0
BBX 6 14 2 0
BITMAP
30
30
00
00
70
70
30
30
30
30
30
30
FC
FC
ENDCHAR
STARTCHAR <unknown>
ENCODING 106
SWIDTH 42 0
DWIDTH 13 0
BBX 8 15 1 -5
BITMAP
07
07
03
03
03
03
03
03
03
03
03
C3
E7
7E
3C
ENDCHAR
STARTCHAR <unknown>
ENCODING 107
SWIDTH 42 0
DWIDTH 13 0
BBX 10 15 0 0
BITMAP
E000
E000
6000
6000
6000
61C0
63C0
6700
6E00
7C00
7C00
6E00
6700
E3C0
E1C0
ENDCHAR
STARTCHAR <unknown>
ENCODING 108
SWIDTH 42 0
DWIDTH 13 0
BBX 5 15 3 0
BITMAP
E0
E0
60
60
60
60
60
60
60
60
60
60
60
78
38
ENDCHAR
STARTCHAR <unknown>
ENCODING 109
SWIDTH 42 0
DWIDTH 13 0
BBX 10 10 0 0
BITMAP
D980
FFC0
EEC0
CCC0
CCC0
CCC0
CCC0
CCC0
CCC0
CCC0
ENDCHAR
STARTCHAR <unknown>
ENCODING 110
SWIDTH 42 0
DWIDTH 13 0
BBX 10 10 0 0
BITMAP
EE00
FF00
7380
6180
6180
6180
6180
6180
E1C0
E1C0
ENDCHAR
STARTCHAR <unknown>
ENCODING 111
SWIDTH 42 0
DWIDTH 13 0
BBX 10 10 0 0
BITMAP
1E00
3F00
7380
E1C0
C0C0
C0C0
E1C0
7380
3F00
1E00
ENDCHAR
STARTCHAR <unknown>
ENCODING 112
SWIDTH 42 0
DWIDTH 13 0
BBX 10 15 0 -5
BITMAP
EF00
FF80
79C0
70C0
60C0
60C0
70C0
79C0
7F80
6F00
6000
6000
6000
E000
E000
ENDCHAR
STARTCHAR <unknown>
ENCODING 113
SWIDTH 42 0
DWIDTH 13 0
BBX 10 15 0 -5
BITMAP
3DC0
7FC0
E780
C380
C180
C180
C380
E780
7F80
3D80
0180
0180
0180
01C0
01C0
ENDCHAR
STARTCHAR <unknown>
ENCODING 114
SWIDTH 42 0
DWIDTH 13 0
BBX 9 10 0 0
BITMAP
E700
EF80
7D80
7800
7000
6000
6000
6000
F000
F000
ENDCHAR
STARTCHAR <unknown>
ENCODING 115
SWIDTH 42 0
DWIDTH 13 0
BBX 10 10 0 0
BITMAP
1F00
3F00
7000
3F00
1F80
01C0
C0C0
E1C0
7F80
3F00
ENDCHAR
STARTCHAR <unknown>
ENCODING 116
SWIDTH 42 0
DWIDTH 13 0
BBX 10 15 0 0
BITMAP
3800
3800
1800
1800
1800
FF00
FF00
1800
1800
1800
18C0
18C0
1DC0
0F80
0700
ENDCHAR
STARTCHAR <unknown>
ENCODING 117
SWIDTH 42 0
DWIDTH 13 0
BBX 10 10 0 0
BITMAP
E180
E180
6180
6180
6180
6180
6180
7380
3FC0
1EC0
ENDCHAR
STARTCHAR <unknown>
ENCODING 118
SWIDTH 42 0
DWIDTH 13 0
BBX 10 10 0 0
BITMAP
C0C0
C0C0
C0C0
C0C0
C0C0
E1C0
7380
3F00
1E00
0C00
ENDCHAR
STARTCHAR <unknown>
ENCODING 119
SWIDTH 42 0
DWIDTH 13 0
BBX 10 10 0 0
BITMAP
CCC0
CCC0
CCC0
CCC0
CCC0
CCC0
CCC0
FFC0
7F80
3300
ENDCHAR
STARTCHAR <unknown>
ENCODING 120
SWIDTH 42 0
DWIDTH 13 0
BBX 10 10 0 0
BITMAP
E1C0
F3C0
3F00
1E00
0C00
0C00
1E00
3F00
F3C0
E1C0
ENDCHAR
STARTCHAR <unknown>
ENCODING 121
SWIDTH 42 0
DWIDTH 13 0
BBX 10 15 0 -5
BITMAP
C1C0
C1C0
C180
C180
C180
C180
C180
E380
7F80
3D80
0180
C180
E380
7F00
3E00
ENDCHAR
STARTCHAR <unknown>
ENCODING 122
SWIDTH 42 0
DWIDTH 13 0
BBX 10 10 0 0
BITMAP
FFC0
FFC0
C380
0700
0E00
1C00
3800
70C0
FFC0
FFC0
ENDCHAR
STARTCHAR <unknown>
ENCODING 123
SWIDTH 42 0
DWIDTH 13 0
BBX 6 15 2 0
BITMAP
0C
1C
38
30
30
30
70
E0
70
30
30
30
38
1C
0C
ENDCHAR
STARTCHAR <unknown>
ENCODING 124
SWIDTH 42 0
DWIDTH 13 0
BBX 2 20 4 -5
BITMAP
C0
C0
C0
C0
C0
C0
C0
C0
C0
C0
C0
C0
C0
C0
C0
C0
C0
C0
C0
C0
ENDCHAR
STARTCHAR <unknown>
ENCODING 125
SWIDTH 42 0
DWIDTH 13 0
BBX 6 15 2 0
BITMAP
C0
E0
70
30
30
30
38
1C
38
30
30
30
70
E0
C0
ENDCHAR
STARTCHAR <unknown>
ENCODING 126
SWIDTH 42 0
DWIDTH 13 0
BBX 10 5 0 10
BITMAP
3800
7CC0
EDC0
CF80
0700
ENDCHAR
STARTCHAR <unknown>
ENCODING 127
SWIDTH 42 0
DWIDTH 13 0
BBX 13 20 0 -5
BITMAP
CCC8
CCC8
3330
3330
CCC8
CCC8
3330
3330
CCC8
CCC8
3330
3330
CCC8
CCC8
3330
3330
CCC8
CCC8
3330
3330
ENDCHAR
ENDFONT
